<svg version="1.1" viewBox="0 0 172.09 148.58" xmlns="http://www.w3.org/2000/svg">
 <defs>
  <style>.cls-1{fill:#ef4137;}.cls-2{fill:#231f20;}.cls-3{fill:#ef4136;}.cls-4{fill:#c5342b;}.cls-5{fill:#9e271d;}.cls-6{fill:#7a170a;}</style>
 </defs>
 <path class="cls-1" d="m19.27 117.82a12.92 12.92 0 0 0-5.94-1.32h-13.33v31.61h7.71v-10h5.29a13.09 13.09 0 0 0 6.13-1.38 10.21 10.21 0 0 0 4.15-3.9 11.13 11.13 0 0 0 1.48-5.74 10.48 10.48 0 0 0-1.44-5.51 9.81 9.81 0 0 0-4.05-3.76zm-2.43 9.49a4.24 4.24 0 0 1-1.12 3.12 4.16 4.16 0 0 1-3.14 1.14h-4.87v-8.57h4.87a4.12 4.12 0 0 1 3.12 1.17 4.23 4.23 0 0 1 1.14 3.14z"/>
 <path class="cls-1" d="m45 125.73a13.84 13.84 0 0 0-6.54-1.51 14.08 14.08 0 0 0-6.6 1.51 10.81 10.81 0 0 0-4.48 4.27 12.67 12.67 0 0 0-1.58 6.37 12.52 12.52 0 0 0 1.6 6.34 10.92 10.92 0 0 0 4.49 4.29 13.94 13.94 0 0 0 6.58 1.51 13.84 13.84 0 0 0 6.53-1.51 11 11 0 0 0 4.49-4.29 13.38 13.38 0 0 0 0-12.69 11 11 0 0 0-4.49-4.29zm-1.58 10.66a5.74 5.74 0 0 1-1.42 4.06 4.54 4.54 0 0 1-3.53 1.55 4.56 4.56 0 0 1-3.61-1.52 5.85 5.85 0 0 1-1.39-4.06 5.94 5.94 0 0 1 1.39-4.1 5 5 0 0 1 7.18 0 5.92 5.92 0 0 1 1.39 4.07z"/>
 <path class="cls-1" d="m84.68 142a2 2 0 0 1-1.6-0.68 2.79 2.79 0 0 1-0.63-1.92v-8.43h6.15v-6.31h-6.15v-6.56h-2.45l-4.75 6.56c-3.06 0-6.13-0.06-8.85-0.11-2.09 0-3.93-0.08-5.29-0.08a9.43 9.43 0 0 0-5 1 7.83 7.83 0 0 0-3 3.1 8.48 8.48 0 0 0-1 3.9 5.77 5.77 0 0 0 0.9 3.36 6 6 0 0 0 2.25 2 26.08 26.08 0 0 0 3.49 1.38l2.51 0.82a2.2 2.2 0 0 1 1 0.63 1.08 1.08 0 0 1 0.29 0.73 1 1 0 0 1-0.4 0.79 2.61 2.61 0 0 1-1.6 0.33 10.77 10.77 0 0 1-5.31-1.49l-0.46-0.29-2.78 4.6 0.27 0.3a9 9 0 0 0 3.21 2 13.45 13.45 0 0 0 5.19 0.95 12.59 12.59 0 0 0 4.85-0.89 8 8 0 0 0 3.48-2.69 6.6 6.6 0 0 0 1.28-4 6.7 6.7 0 0 0-1.59-4.72 11.37 11.37 0 0 0-4.72-2.72l-2.45-0.79a3.86 3.86 0 0 1-1.44-0.68 0.91 0.91 0 0 1-0.33-0.71c0-0.15 0.25-0.28 0.46-0.29s1.17 0 2 0l4.43-0.05c2.8 0 6.19-0.08 8.42-0.09v9.75a7.81 7.81 0 0 0 2.11 5.65 7.37 7.37 0 0 0 5.52 2.19 14.85 14.85 0 0 0 6-1.12l0.32-0.14v-6.28l-0.73 0.31a9 9 0 0 1-3.6 0.69z"/>
 <path class="cls-1" d="m117 137.52a9.33 9.33 0 0 1-3.4 3.36 9.76 9.76 0 0 1-4.78 1.09 9.34 9.34 0 0 1-4.75-1.2 8.39 8.39 0 0 1-3.22-3.38 10.7 10.7 0 0 1-1.16-5 11.23 11.23 0 0 1 1.14-5.15 8.31 8.31 0 0 1 3.16-3.4 9.41 9.41 0 0 1 4.79-1.2 10.27 10.27 0 0 1 4.34 0.92 8.58 8.58 0 0 1 3.21 2.54l0.37 0.49 4.91-5-0.34-0.37c-3.06-3.37-7.29-5.08-12.57-5.08a18.72 18.72 0 0 0-8.8 2 14.86 14.86 0 0 0-6 5.69 17.85 17.85 0 0 0-0.06 16.8 15 15 0 0 0 5.94 5.84 18 18 0 0 0 8.7 2.09 19 19 0 0 0 8-1.6 14.56 14.56 0 0 0 5.83-4.82l0.27-0.38-5.25-4.76z"/>
 <path class="cls-1" d="m137.68 128.83-2.18-0.7a12.84 12.84 0 0 1-2.49-1.06 2.37 2.37 0 0 1-0.94-0.88 2.58 2.58 0 0 1-0.22-1.11 2.25 2.25 0 0 1 0.8-1.73 4 4 0 0 1 2.72-0.75 8.18 8.18 0 0 1 3.33 0.65 14.54 14.54 0 0 1 3 1.88l0.46 0.36 3.4-5.45-0.32-0.3a13.33 13.33 0 0 0-4.3-2.56 14.71 14.71 0 0 0-5.52-1.09 14 14 0 0 0-6 1.2 9.54 9.54 0 0 0-4.08 3.48 9.39 9.39 0 0 0-1.47 5.26 7.75 7.75 0 0 0 2.26 6 15.89 15.89 0 0 0 5.83 3.17l2.14 0.66a18.52 18.52 0 0 1 3.05 1.2 3.35 3.35 0 0 1 1.29 1.05 2.65 2.65 0 0 1 0.33 1.41 2.13 2.13 0 0 1-0.88 1.68 5 5 0 0 1-3.17 0.76 9.8 9.8 0 0 1-3.88-0.74 13.33 13.33 0 0 1-3.25-2l-0.49-0.42-3 5.37 0.27 0.28a14 14 0 0 0 4.29 2.8 15.27 15.27 0 0 0 6.33 1.29 13.91 13.91 0 0 0 6.35-1.34 9.7 9.7 0 0 0 4-3.54 8.76 8.76 0 0 0 1.34-4.61 8.66 8.66 0 0 0-2.52-6.6 17 17 0 0 0-6.48-3.62z"/>
 <path class="cls-1" d="m169.67 132.44a16.92 16.92 0 0 0-6.56-3.61l-2.18-0.7a12.84 12.84 0 0 1-2.49-1.06 2.37 2.37 0 0 1-0.94-0.88 2.59 2.59 0 0 1-0.21-1.11 2.25 2.25 0 0 1 0.8-1.73 3.94 3.94 0 0 1 2.71-0.75 8.18 8.18 0 0 1 3.33 0.65 14 14 0 0 1 3 1.88l0.47 0.36 3.4-5.49-0.32-0.3a13.39 13.39 0 0 0-4.29-2.56 14.76 14.76 0 0 0-5.53-1.09 14 14 0 0 0-6 1.2 9.6 9.6 0 0 0-4.08 3.48 9.47 9.47 0 0 0-1.47 5.26 7.76 7.76 0 0 0 2.26 6 15.85 15.85 0 0 0 5.84 3.17l2.14 0.66a18.9 18.9 0 0 1 3 1.2 3.39 3.39 0 0 1 1.28 1.05 2.65 2.65 0 0 1 0.34 1.41 2.11 2.11 0 0 1-0.89 1.68 5 5 0 0 1-3.17 0.76 9.8 9.8 0 0 1-3.88-0.74 13.52 13.52 0 0 1-3.25-2l-0.49-0.42-3 5.37 0.27 0.28a14.09 14.09 0 0 0 4.29 2.8 15.27 15.27 0 0 0 6.33 1.29 13.91 13.91 0 0 0 6.35-1.34 9.7 9.7 0 0 0 4-3.54 8.76 8.76 0 0 0 1.34-4.61 8.66 8.66 0 0 0-2.4-6.57z"/>
 <circle class="cls-3" cx="86.1" cy="51.79" r="51.79"/>
 <polygon class="cls-4" points="86.21 0.55 41.79 77.49 130.62 77.49"/>
 <rect class="cls-5" x="65.58" y="36.22" width="41.29" height="41.29"/>
 <circle class="cls-6" cx="86.23" cy="56.87" r="20.64"/>
</svg>
